<?xml version="1.0" encoding="UTF-8"?>
<!DOCTYPE svg PUBLIC "-//W3C//DTD SVG 1.1//EN" "http://www.w3.org/Graphics/SVG/1.1/DTD/svg11.dtd">
<!-- Creator: CorelDRAW 2020 (64-Bit) -->
<svg xmlns="http://www.w3.org/2000/svg" xml:space="preserve" width="279.4mm" height="215.9mm" version="1.1" style="shape-rendering:geometricPrecision; text-rendering:geometricPrecision; image-rendering:optimizeQuality; fill-rule:evenodd; clip-rule:evenodd"
viewBox="0 0 27940 21590"
 xmlns:xlink="http://www.w3.org/1999/xlink"
 xmlns:xodm="http://www.corel.com/coreldraw/odm/2003">
 <defs>
  <style type="text/css">
   <![CDATA[
    .fil4 {fill:#FEFEFE}
    .fil3 {fill:#EF8A68}
    .fil9 {fill:#EB665C}
    .fil8 {fill:#F9F9F8}
    .fil2 {fill:#E66345}
    .fil12 {fill:#DD453D}
    .fil0 {fill:#EAF0F4}
    .fil1 {fill:#B8D2DA}
    .fil14 {fill:#85B1BF}
    .fil6 {fill:#71C5D2}
    .fil13 {fill:#7597A9}
    .fil10 {fill:#554B59}
    .fil11 {fill:#414050}
    .fil7 {fill:#18A1B4}
    .fil5 {fill:#2F3647}
   ]]>
  </style>
 </defs>
 <g id="Layer_x0020_1">
  <metadata id="CorelCorpID_0Corel-Layer"/>
  <polygon class="fil0" points="14712.58,9186.87 3858.65,9186.87 3858.65,1443.98 14712.58,1443.98 "/>
  <path class="fil1" d="M14273.4 8721.64l-9975.55 0 0 -6802.04 9975.55 0 0 6802.04zm-10414.75 -7277.66l0 7742.89 10853.93 0 0 -7742.89 -10853.93 0z"/>
  <path class="fil2" d="M2634.64 3735.03c-217.83,-26.46 -375.64,-122.5 -531.39,-273.06 44.43,417.85 -87.58,849.59 -87.58,849.59 0,0 20.91,1369.82 577.71,1205.13 556.86,-164.69 198.68,-1056.11 198.68,-1056.11 -128.86,-205.25 -155.88,-514.47 -157.42,-725.55z"/>
  <path class="fil3" d="M2358.32 2325.3c0,0 637.41,-67.41 753.87,189.98 116.38,257.41 -18.44,602.16 18.39,718.6 36.74,116.42 18.36,850.33 -190.05,868.71 -208.33,18.39 -864.06,-453.51 -882.53,-1005.08 -18.36,-551.59 140.97,-764.38 300.32,-772.21z"/>
  <path class="fil4" d="M2880.35 3877.35l9.18 -1.11c20.75,0.39 39.2,1 57.82,1.58 6.58,-15.43 12.09,-30.58 19.06,-46.16 12.63,-28.19 24.96,-56.52 37.67,-84.67 18.61,-53.7 34.23,-107.83 49.08,-162.02 -29.78,-3.5 -59.34,-8.34 -88.51,-15.02 -81.54,39.11 -163.17,78.13 -244.72,117.2 -15.69,7.53 -31.68,14.54 -47.46,22.01 72.36,53.11 142.33,108.65 207.88,168.19z"/>
  <path class="fil3" d="M5543.91 5449.84c0,0 213.92,-163.37 247.54,-209.29 33.69,-45.97 179.32,-382.11 261.71,-537.53 82.39,-155.43 517.06,-327.15 552.44,-216.52 35.44,110.62 -146.64,134.8 -339.13,266.61 0,-0.02 20.14,26.46 39.83,27.76 19.6,1.28 320.65,402.81 101.2,545.97 -219.43,143.14 -505.94,153.95 -696.29,320.88 0,0 -152.6,-87.51 -167.3,-197.88z"/>
  <path class="fil5" d="M2347.21 14788.74c0,0 -76.79,458.87 -29.26,585.73 36.53,97.32 1418.2,111.49 1495.92,26.95 77.64,-84.6 -51.85,-231.75 -119.76,-265.76 -67.92,-34.08 -773.56,-343.32 -773.56,-343.32l-573.34 -3.6z"/>
  <path class="fil5" d="M1469.75 14876.09l-589.97 0c0,0 -311.32,422.8 -306.66,529.63 4.69,106.87 478.56,306.64 585.37,306.64 106.83,0 487.82,-255.5 483.13,-301.97 -4.66,-46.49 -171.87,-534.3 -171.87,-534.3z"/>
  <path class="fil5" d="M3147.81 2963.49c0,0 217.22,-94.98 168.12,-340.13 -48.99,-245.15 -171.57,-398.36 -533.14,-499.48 -361.62,-101.14 -692.63,-67.97 -737.03,232.61 0,0 170.14,524.26 589.96,499.76 419.83,-24.53 547.69,-24.5 512.09,107.24z"/>
  <path class="fil5" d="M2798.05 3688.89c0,0 133.28,1.56 206.88,-39.81 0,0 -69,193.04 -206.88,39.81zm347.83 -170.05c0,0 -61.34,-64.36 -205.35,-65.88 -236.2,-2.51 -368.14,226.49 -390.19,226.75 -147.7,1.76 -308.42,-334.01 -308.42,-334.01 -148.61,-98.06 -101.14,-234.4 -21.44,-269.65 79.65,-35.23 120.97,84.28 133.24,151.69 12.33,67.39 57.73,110.82 96.54,53.61 38.83,-57.21 -49.01,-9.18 9.2,-321.74 58.25,-312.59 -159.35,-438.19 -159.35,-438.19l-243.54 -269.68c-568.29,251.29 -196.34,1158.97 -40.9,1363.61 295.79,389.53 746.46,759.8 1016.83,587.34 166.45,-106.2 113.38,-683.83 113.38,-683.85z"/>
  <path class="fil5" d="M3215.57 7595.76l-1674.85 -31.58c0,0 -254.74,417.57 -311.78,1622.69 -39.05,825.11 -72.75,1053.66 -154.82,2144.29 -55.67,740.4 -318.38,3578.25 -318.38,3578.25l890.18 -0.02c0,0 376.79,-3238.27 396.02,-3414.68 6.81,-62.4 227.24,-1796.12 227.24,-1796.12 0,-0.02 -36.07,1572.48 -36.07,1752.79 0,180.39 -38.9,3366.53 -38.9,3366.53l937.58 0c0,0 105.35,-2709.04 114.25,-3329.09 14.46,-1003.88 100.21,-3568.89 -30.47,-3893.06z"/>
  <path class="fil6" d="M3567.46 4512.07l-328.38 1250.33c0,0 606.48,1129.34 912.36,1145.01 305.83,15.67 1761.9,-1270.46 1761.9,-1270.46l-245.39 -419.04c0,0 -1260.32,944.46 -1330.9,920.95 -70.6,-23.55 -553.05,-1584.28 -769.59,-1626.79z"/>
  <path class="fil6" d="M2021.34 4276.31c0,0 -777.62,105.83 -965.84,207.8 0.02,-0.02 528.87,847.09 364.15,1392.09 0.03,0 -147.06,1870.92 -134.82,2278.7 0,0 977.17,362.4 2087.99,14.46 0.02,-0.02 -17.52,-2061.88 -16.84,-2380.8 0.02,0 95.49,-857.04 211.48,-1276.49 0,0 -411.47,-87.6 -833.14,-165.67 0.02,0 34.38,43.41 -144.16,271.02 -107.19,136.56 -536.98,-62.84 -568.82,-341.11z"/>
  <path class="fil7" d="M3356 5788.56c0,0 23.26,-208.54 60.7,-469.99 -138.97,145.2 -159.02,779.9 -177.65,885.47 -85.12,483.03 -718.12,657.62 -1128.2,398.03 -382.39,-242.11 -427.88,-849.63 -518.91,-1245.41 -48.53,-210.85 -183.53,-374.05 -351.22,-517.53 133.85,295.59 275.41,717.69 178.93,1037.07 0.03,0 -147.06,1870.9 -134.82,2278.7 0,0 977.17,362.4 2087.99,14.46 0.02,-0.02 -17.52,-2061.88 -16.82,-2380.8z"/>
  <path class="fil3" d="M1317.69 8805.27c57.8,70.97 250.96,301.99 219.58,403.89 -31.38,101.99 -192.1,-82.3 -250.9,-145.09 -58.88,-62.72 -66.7,149 -51.01,262.71 15.7,113.77 247.02,301.97 223.51,380.39 -23.5,78.39 -156.9,-31.41 -300.6,-243.11 0,0 227.4,261.4 175.11,298 -52.31,36.59 -180.41,-96.69 -282.31,-250.99 0,0 219.59,247.08 164.7,276.49 -54.89,29.39 -205.89,-143.1 -262.78,-231.39 0,0 186.75,202.83 135.28,236.14 -41.1,26.63 -176.41,-94.95 -229.39,-255.74 -52.91,-160.74 103.9,-686.2 96.09,-786.19 -7.79,-99.99 -39.9,-224.81 -39.9,-224.81l324.2 -73.19c-6.42,1.43 -7.81,247.04 78.42,352.89z"/>
  <path class="fil6" d="M1321.59 8632.74l-447.02 117.64c0,0 -519.96,-1709.51 -441.57,-2117.31 78.42,-407.83 269.61,-1937.21 622.5,-2148.96 0.02,-0.02 449.54,129.79 476.56,682.27 15.32,313.13 -112.41,709.82 -112.41,709.82 0.03,0 -281.52,539.22 -317.59,916.2 -30.09,313.69 219.51,1840.36 219.53,1840.34z"/>
  <polygon class="fil8" points="2708.76,4276.31 2548.97,4582.1 2033.36,4188.3 1876.46,4306.66 2368.8,4983.39 2572.47,4651.38 2850.72,4862.57 2861.14,4370.16 "/>
  <path class="fil5" d="M4841.33 6619.11c0,0 2761.4,-3571.47 2809.96,-3586.86 48.53,-15.41 -2625.83,3756.35 -2625.83,3756.35 0,0 -51.67,52.22 -148.08,-18.93 -46.99,-34.66 -68.91,-104.48 -36.05,-150.56z"/>
  <path class="fil3" d="M6467.32 4903.48c0,0 -185.16,67.74 -282.7,73.27 -93.17,5.26 -70.75,-87.62 -8.57,-121.19 64.33,-34.73 298.45,-144.81 359.49,-115.25 61.01,29.58 37.59,139.12 1.45,152.69 0,-0.03 87.06,46.05 29.56,135.8 0,-0.02 44.78,98.32 -11.02,142.79 0,0 27.26,113.71 -46.56,137.89 -73.73,24.18 -273.28,34.27 -299,-17.5 -30.93,-62.35 68,-93.11 264.38,-112.14 0,0 -211.79,36.9 -247.69,32.79 -49.92,-5.68 -180.77,-115.38 242.79,-159.72 0.02,0 -338.2,95.39 -353.5,9.81 -19.38,-108.69 351.37,-159.24 351.37,-159.24z"/>
  <path class="fil9" d="M13149.47 9151.04l4.66 379.63c0,0 1612.28,101.47 2064.79,-54.44 452.51,-155.9 1406.54,-1413.37 1488.11,-1624.1 98.01,-253.31 -275.34,-869 -644.86,-307.85 -369.58,561.12 -1039.33,1316.27 -1077.09,1339.62 -37.66,23.34 -1835.64,267.14 -1835.61,267.14z"/>
  <path class="fil2" d="M13504.81 9316.21c0,0 -162.87,-54.59 -196.56,-58.58 -33.75,-3.91 -413.92,-202.98 -469.2,-181.01 -55.34,21.9 -574.79,222.44 -575.88,273.43 -0.97,51 132.31,35.83 416.38,-99 0.02,0 -368.06,144.4 -320.27,195.41 47.86,50.98 381.84,-119.92 381.84,-119.92 0,0 -333.83,138.76 -277.72,185.07 56.23,46.32 366.08,-129.49 366.08,-129.49 0,0 -240.89,130.86 -221.36,159.66 19.47,28.78 156.03,-0.69 321.05,-87.45 0,0 27.95,-8.11 90.81,31.39 62.79,39.52 521.36,30.65 521.36,30.65l-36.53 -200.16z"/>
  <path class="fil5" d="M12037.84 9446.46l544.65 -923.3c0,0 129.77,-76.38 130.61,81.98l-628.62 877.61c0,0 -144.87,178.93 -46.64,-36.29z"/>
  <path class="fil3" d="M13333.97 9193.69c0,0 -178.77,0.48 -216.21,-4.21 -37.44,-4.67 -490.19,-338.8 -547.23,-307.88 -57.11,30.85 -594.48,313.72 -587.97,382.93 6.6,69.28 149.91,46.01 440.03,-142.81 0.02,0 -380.39,203.52 -320.44,271.91 59.88,68.28 399.08,-170.6 399.08,-170.6 0,-0.02 -343.86,195.17 -275.5,256.96 68.39,61.79 380.39,-183.23 380.39,-183.23 0,-0.02 -243.41,182.62 -217.82,221.28 25.65,38.74 170.44,-4.06 337.65,-125.19 0.02,0 68.46,13.41 134.7,76.03 136.82,129.4 543.47,48.25 543.47,48.25l-70.15 -323.44z"/>
  <path class="fil2" d="M16368.98 6556.99c56.44,-11.74 326.85,-582.15 442.62,-693.14 55.45,389.61 290.97,1313.56 290.97,1313.56 -285.74,306.53 -855.72,118.7 -855.72,118.7 93.57,-202.65 138.43,-606.72 122.13,-739.12z"/>
  <path class="fil3" d="M16634.82 5168.12c0,0 -521.51,117.35 -621.44,269.46 -99.99,152.12 -99.6,547.92 -154.81,652.45 -33.52,63.35 -63.4,114.42 -80.09,151.56 -14.67,32.6 22.29,51.72 67.69,67.74 23.27,8.2 41.2,27 48.69,50.48 30.86,95.74 117.07,340 203.3,373.94 107.5,42.37 638.8,26.09 798.52,-436.75 159.72,-462.84 72.27,-1228.13 -261.86,-1128.88z"/>
  <path class="fil3" d="M14263.44 14637.5l372.44 -61.49c0,0 18.97,353.91 49.99,435 0,0 -417.83,199.83 -846.08,41.74 0,-0.03 273.04,-117.62 344.56,-201.07 71.6,-83.54 79.09,-214.18 79.09,-214.18z"/>
  <path class="fil5" d="M14653.11 14844.62c0,0 -283.17,196.95 -722.51,165.17 0,-0.02 -534.6,286.04 -569.06,357.71 -48.23,100.23 185.98,106.5 551.37,94.57 311.63,-10.27 288.82,-33.62 351.29,-94.79 62.57,-61.18 140.57,-129.25 140.57,-129.25 0.03,0 28.65,38.59 60.88,216.68l139.37 -20.14c0,0 -16.24,-171.12 50.89,-262.32 47.27,-64.16 101.47,-213.46 -2.8,-327.63z"/>
  <path class="fil3" d="M15765.32 14546.02l281.31 -76.81c0,0 165.06,275.34 213.31,347.55 0,0 -363.15,287.36 -815.75,228.02 0.02,0 240.11,-175.2 291.42,-272.43 51.29,-97.26 29.69,-226.33 29.71,-226.33z"/>
  <path class="fil5" d="M16228.62 14751.82c0,0 -263.7,222.29 -704.1,231.08 0,0 -505.97,334.22 -533.69,408.71 -38.74,104.29 195.01,88.9 557.8,43.28 309.42,-38.91 284.43,-60.12 341.1,-126.79 56.61,-66.7 128.01,-141.58 128.01,-141.58 0.03,0 32.11,35.68 80.57,210.1l136.91 -32.93c0,0 -31.95,-168.9 26.48,-265.92 41.2,-68.24 81.39,-221.88 -33.08,-325.95z"/>
  <path class="fil10" d="M17062.83 9405.78l-734.43 519.91c0,0 -2382.5,459.11 -2684.77,685.81 -302.28,226.72 1923.36,4246.45 1923.36,4246.45l692.95 -230.09c0,0 -1662.82,-3559.16 -1511.68,-3710.31 151.15,-151.15 2601.08,-374.81 2755.44,-421.04 151.17,-45.43 -64.39,-588.27 -440.87,-1090.73z"/>
  <path class="fil11" d="M17062.83 9405.78l-734.43 519.91c0,0 -2382.5,459.11 -2684.77,685.81 -302.28,226.72 1923.36,4246.45 1923.36,4246.45l692.95 -230.09c0,0 -1662.82,-3559.16 -1511.68,-3710.31 151.15,-151.15 2601.08,-374.81 2755.44,-421.04 151.17,-45.43 -64.39,-588.27 -440.87,-1090.73z"/>
  <path class="fil10" d="M17288.48 9641.84l-960.08 80.85c0,0 -2526.2,558.12 -2835.4,847.24 -275.99,258.09 513.24,4247.28 513.24,4247.28l751.99 -190.19c0,0 -423.97,-3562.01 -239.51,-3669.97 159.11,-93.2 2741.57,-93.18 2902.68,-93.18 232.69,-0.02 396.99,-687.2 -132.92,-1222.03z"/>
  <path class="fil9" d="M17017.51 6984.65c0,0 -394.26,179.35 -761.47,289.02 0,-0.02 -447.78,884.05 -478.02,1130.72 -30.23,246.65 -260.01,1535.01 -260.01,1535.01 0,-0.02 1423.53,495.16 2062.63,179.39 0.03,0 -200.37,-994.16 -129.85,-1517.06 70.54,-522.94 9.57,-1229.44 -433.28,-1617.08z"/>
  <path class="fil12" d="M16846 8488.71c-1.52,442.51 -286.06,659.12 -578.87,945.33 -172.88,169.06 -392.78,340.13 -492.86,587.27 -156.88,-46.01 -256.26,-81.91 -256.26,-81.91 0,-0.02 139.42,-662.93 207.18,-1146.68 293.64,-131.28 449.52,-412.07 554.35,-710.79 60.73,-173 93.72,-284.73 203.37,-413.46 325.04,8.81 344.77,389.11 363.16,744.47 0.08,25.57 0,51.07 -0.07,75.77z"/>
  <polygon class="fil1" points="19018.68,7297.09 18057.9,11138.13 17660.21,11038.68 18486.45,7164 "/>
  <polygon class="fil1" points="14793.45,15442.29 14634.27,15442.29 14634.27,11249.99 14793.45,11249.99 "/>
  <polygon class="fil1" points="17739.78,15442.29 17580.67,15442.29 17580.67,11249.99 17739.78,11249.99 "/>
  <polygon class="fil5" points="18166.72,11412.47 14207.31,11412.47 14207.31,10863.85 18166.72,10863.85 "/>
  <path class="fil5" d="M16159.71 5614.18c135.31,3.95 247.24,49.55 319.9,180.24 33.86,60.92 56.28,141.92 42.56,213.74 -7.33,38.46 -104.65,197.33 -5.18,210.31 46.64,6.08 81.3,-91.68 105.11,-119.65 64.03,-75.1 138.12,-51.57 184.31,28.28 56.74,98.25 -3.38,168.4 -74.75,233.47 -101.96,92.94 -47.23,117.31 -22.57,244.04 30.86,158.94 -47.16,321.12 69.58,449.11 84.87,93 181.56,123.73 308.12,105.07 140.21,-20.71 289.66,-44.76 360.24,-176.7 140.36,-262.21 -35.59,-460.86 -118.98,-711.05 -94.85,-284.95 -2.3,-723.7 -223.42,-950.45 -112.32,-115.18 -277.71,-170.42 -431.31,-187.33 -154.88,-17.04 -289.34,9.99 -440.03,36.86 -116.51,20.81 -220.43,70.49 -335.89,91.22 -78.16,14 -105.05,-13.65 -120.98,68.58 -7.82,40.55 22.96,132.66 42.86,167.32 64.48,112.49 199.62,117.55 315.17,116.71 8.51,-0.09 16.91,0.02 25.26,0.23z"/>
  <polygon class="fil13" points="14918.19,15605.94 15055.16,15605.94 15055.16,9552.48 14918.19,9552.48 "/>
  <polygon class="fil13" points="10435.83,15605.94 10572.81,15605.94 10572.81,9552.48 10435.83,9552.48 "/>
  <polygon class="fil13" points="10435.83,9552.42 10435.83,9712.9 15055.16,9712.9 15055.16,9552.42 "/>
  <path class="fil9" d="M13201.51 9055.35l4.93 497.07c0,0 1665.95,79.72 2133.61,-76.19 467.62,-155.9 1453.34,-1413.37 1537.64,-1624.1 101.38,-253.31 -284.46,-869 -666.3,-307.85 -381.91,561.12 -1074.01,1316.27 -1112.99,1339.62 -38.96,23.34 -1896.89,171.45 -1896.89,171.45z"/>
  <path class="fil5" d="M22436.27 14587.97c0,0 -548.23,270.05 -842.01,391.65 -244.18,101.06 -193.56,323.64 83.99,405.96 277.49,82.3 506.27,28.17 569.52,-59.8 63.18,-87.98 218.43,-55.28 277.32,-27.04 58.81,28.33 521.89,-78.48 548.01,-185.74 26.11,-107.35 -88.75,-580.01 -88.75,-580.01l-548.08 54.98z"/>
  <path class="fil6" d="M25294.09 9497.44l-931.68 12.18c0,0 -2279.35,850.28 -2577.11,1073.64 -297.7,223.25 489.34,4115.12 489.34,4115.12l773.41 -81.02c0,0 -182.38,-3482.21 -33.53,-3631.05 148.84,-148.85 2561.72,-369.15 2713.7,-414.77 148.93,-44.65 -63.31,-579.31 -434.13,-1074.1z"/>
  <path class="fil7" d="M25294.09 9497.44l-931.68 12.18c0,0 -2279.35,850.28 -2577.11,1073.64 -297.7,223.25 489.34,4115.12 489.34,4115.12l773.41 -81.02c0,0 -182.38,-3482.21 -33.53,-3631.05 148.84,-148.85 2561.72,-369.15 2713.7,-414.77 148.93,-44.65 -63.31,-579.31 -434.13,-1074.1z"/>
  <polygon class="fil1" points="27184.77,7420.58 26238.57,11203.52 25846.92,11105.59 26660.67,7289.49 "/>
  <polygon class="fil1" points="23023.48,15442.62 22866.75,15442.62 22866.75,11313.69 23023.48,11313.69 "/>
  <polygon class="fil1" points="25925.23,15442.62 25768.5,15442.62 25768.5,11313.69 25925.23,11313.69 "/>
  <polygon class="fil5" points="26345.75,11473.65 22446.23,11473.65 22446.23,10933.39 26345.75,10933.39 "/>
  <path class="fil2" d="M25045.92 5758.37l-534.66 114.14c0,0 153.82,657.51 0,1019.75 0,0 291.58,114.53 782.83,-257.65 0,-0.02 -302.75,-255.94 -248.17,-876.24z"/>
  <path class="fil3" d="M25133.67 4994.92c0,0 -594.84,-224.16 -754.35,-142.25 -159.48,81.91 -353.5,202.61 -323.33,323.28 30.24,120.7 52.83,477.35 14,589.4 -38.74,112.06 -105.59,189.66 -89.42,228.46 16.17,38.79 109.95,8.25 135.83,55.85 25.8,47.6 164.84,361.2 245.71,406.45 80.78,45.26 542.02,-117.37 755.41,-618.48 213.34,-501.11 148.7,-757.57 16.15,-842.71z"/>
  <path class="fil5" d="M21769 14647.92c0,0 -715.85,249.77 -1010.86,368.45 -245.17,98.69 -196.7,321.74 80.01,406.71 276.72,85.09 506.03,33.17 570.06,-54.19 64.09,-87.38 219.04,-53.13 277.62,-24.35 58.51,28.84 522.66,-73.36 549.83,-180.39 27.13,-107.06 -38.74,-420.6 -38.74,-420.6l-427.92 -95.63z"/>
  <path class="fil5" d="M25405.8 5374.63c-13.78,-55.82 -44.04,-113.57 -50.07,-171.59 -5.97,-58.06 52.13,-493.23 -483.92,-439.25 -27.02,2.71 -52.28,2.3 -76.88,-3.39 -87.88,-20.29 -164.93,-88.94 -258.1,-101.22 -297.52,-39.22 -477.47,248.23 -750.82,262.07 -9.03,76.62 86.97,197.99 134.68,257.96 58.12,72.95 151.54,121.26 238.05,148.93 95.5,30.5 222.97,34.34 325.95,23.79 54.68,-5.62 153.58,-67.74 200.99,-21.68 48.55,47.14 10.72,227.76 14.93,289.69 2.99,45.31 -4.6,83.27 46.47,102.37l14.47 3.35 13.35 -1.33c53.96,-16.6 42.93,-169.59 57.02,-214.3 49.55,-157.34 237.05,-137.93 260.8,15.08 20.29,131.12 -105.9,221.34 -142.58,244.65 -4.43,22.4 -7.72,43.67 -9.81,63.72 -13.46,129.08 126.28,217.96 239.96,155.43 91.75,-50.42 162.03,-116.49 220.06,-234.95 59.28,-120.89 35.99,-255.76 5.45,-379.33z"/>
  <path class="fil6" d="M25551.74 9359.44l-1040.48 207.3c0,0 -2364.11,853.89 -2661.81,1077.16 -297.76,223.34 -350.97,4054.48 -350.97,4054.48l776.01 74.97c0,0 332.22,-3641.8 513.91,-3748.24 156.66,-91.72 2700.09,-91.72 2858.82,-91.72 229.08,0 426.48,-1047.14 -95.48,-1573.95z"/>
  <path class="fil1" d="M21292.74 9063.62l94.87 488.8c0,0 2019.84,-349.38 2237.53,-510.79 217.7,-161.33 1521.56,-1573.12 1330.21,-1966.32 -191.32,-393.19 -439.34,-296.43 -595.24,-73.14 -155.88,223.29 -872.57,1359.94 -978.84,1471.61 -106.26,111.63 -2088.53,589.84 -2088.53,589.84z"/>
  <path class="fil1" d="M25283.76 6596.97c0,0 -521.97,264.43 -817.06,247.74 0,0 -477.79,1004.14 -510.03,1272.75 -32.23,268.64 -395.99,1733.19 -395.99,1733.19 0,0 1586.62,548.3 2321.68,115.47 0,0 -217.15,-1064.22 -141.97,-1633.74 75.27,-569.52 15.63,-1313.26 -456.63,-1735.41z"/>
  <path class="fil14" d="M25060.4 8463.49c115.47,-266.26 567.43,-695.31 339.95,-994.31 -182.99,-240.46 -314.08,-256.96 -515.15,-27.83 -188.32,214.68 -360.46,445.98 -574.46,635.68 -112.26,99.49 -238.3,179.58 -361.27,264.27 0.09,552 -388.79,1509.35 -388.79,1509.35 0,0 821.25,262.86 1270.02,269.53 -240.33,-524.36 -12.72,-1097.76 229.7,-1656.69z"/>
  <path class="fil2" d="M21864.47 9185.57c0,0 -162.78,76.05 -196.55,72.06 -33.77,-3.91 -413.92,-202.98 -469.2,-181.01 -55.28,21.9 -574.82,222.44 -575.88,273.43 -1,51 132.31,35.83 416.37,-99 0.03,0 -368.06,144.4 -320.29,195.41 47.88,50.98 381.85,-119.92 381.85,-119.92 0.02,0 -333.84,138.76 -277.71,185.07 56.22,46.32 366.09,-129.49 366.09,-129.49 0,0 -240.9,130.86 -221.37,159.66 19.47,28.78 156.04,-0.69 321.05,-87.45 0,0 28.02,-8.11 90.81,31.39 62.79,39.52 521.34,-99.99 521.34,-99.99l-36.51 -200.16z"/>
  <path class="fil5" d="M20369.72 9445.37l505.8 -945.13c0,0 126.56,-81.67 133.92,76.51l-591.64 902.94c0,0 -137.37,184.74 -48.08,-34.32z"/>
  <path class="fil3" d="M21654.22 9139.02c0,0 -178.64,7.9 -216.23,4.84 -37.6,-3.15 -503.82,-318.21 -559.56,-285 -55.74,33.23 -580.92,338.13 -571.5,407.04 9.42,68.97 151.67,39.74 433.68,-160.94 0,0 -371.58,219.13 -308.88,284.91 62.73,65.77 391.64,-186.98 391.64,-186.98 0.02,-0.02 -335.44,209.34 -264.54,268.22 70.82,58.86 372.43,-198.85 372.43,-198.85 0,0 -235.6,192.49 -208.43,230.08 27.2,37.6 170.08,-11.11 332.16,-139.05 0,0 68.91,10.5 137.67,70.38 142.12,123.56 545.02,25.64 545.02,25.64l-83.46 -320.29z"/>
  <polygon class="fil13" points="23788.16,15605.94 23925.22,15605.94 23925.22,9552.48 23788.16,9552.48 "/>
  <polygon class="fil13" points="19305.81,15605.94 19442.78,15605.94 19442.78,9552.48 19305.81,9552.48 "/>
  <polygon class="fil13" points="19305.81,9552.42 19305.81,9712.9 23925.22,9712.9 23925.22,9552.42 "/>
  <path class="fil1" d="M21358.98 9064.29l139.5 498.76c0,0 2057.14,59.12 2285.78,-102.29 228.69,-161.41 1802.53,-1759.76 1601.62,-2152.97 -200.96,-393.22 -462.76,-297.37 -625.24,-73.15 -149.69,206.52 -1144.16,1356.11 -1261.3,1474.35 -111.16,112.12 -2140.38,355.32 -2140.36,355.3z"/>
 </g>
</svg>
