<svg width="980" height="667" viewBox="0 0 980 667" fill="none" xmlns="http://www.w3.org/2000/svg">
<g clip-path="url(#clip0_1543_188)">
<path d="M485.555 142.967C500.301 142.967 512.256 131.013 512.256 116.266C512.256 101.52 500.301 89.5654 485.555 89.5654C470.809 89.5654 458.854 101.52 458.854 116.266C458.854 131.013 470.809 142.967 485.555 142.967Z" fill="#F35EBD"/>
<path d="M545.313 103.623C544.56 101.154 543.101 98.9588 541.117 97.3082C539.132 95.6576 536.708 94.6234 534.143 94.3329C534.083 94.3279 534.023 94.3279 533.963 94.3329C533.891 94.3104 533.818 94.2937 533.743 94.2829C524.803 93.1229 514.863 95.9429 508.173 102.083C505.69 104.326 503.704 107.065 502.343 110.123C501.103 108.429 499.468 107.063 497.581 106.143C495.694 105.223 493.611 104.777 491.513 104.843C488.807 105.022 486.222 106.031 484.11 107.733C481.998 109.435 480.463 111.746 479.713 114.353C479.631 114.671 479.653 115.008 479.778 115.312C479.902 115.617 480.121 115.873 480.403 116.043C481.207 116.731 482.164 117.217 483.193 117.463C485.403 117.933 487.633 118.363 489.863 118.753C494.223 119.513 498.606 120.13 503.013 120.603C505.923 120.913 508.84 121.16 511.763 121.343C517.803 121.723 523.873 121.813 529.923 121.623C532.923 121.523 535.803 121.423 538.543 120.103C540.54 119.121 542.246 117.635 543.493 115.793C544.667 114.021 545.439 112.012 545.753 109.91C546.068 107.807 545.917 105.661 545.313 103.623Z" fill="#E6E6E6"/>
<path d="M490.383 142.523C490.332 141.404 490.144 140.296 489.823 139.223C489.066 136.754 487.606 134.56 485.619 132.909C483.633 131.259 481.209 130.225 478.643 129.933C478.587 129.928 478.53 129.928 478.473 129.933C478.398 129.911 478.321 129.895 478.243 129.883C473.295 129.277 468.274 129.793 463.553 131.393C456.293 133.823 449.923 138.723 446.853 145.723C445.612 144.028 443.976 142.661 442.087 141.741C440.198 140.821 438.113 140.375 436.013 140.443C433.307 140.622 430.722 141.631 428.61 143.333C426.498 145.035 424.963 147.346 424.213 149.953C424.135 150.271 424.16 150.606 424.284 150.91C424.408 151.213 424.625 151.47 424.903 151.643C425.709 152.329 426.664 152.815 427.693 153.063C429.913 153.533 432.133 153.963 434.373 154.353C438.733 155.113 443.113 155.73 447.513 156.203C456.452 157.163 465.447 157.503 474.433 157.223C477.423 157.123 480.313 157.023 483.053 155.703C485.047 154.721 486.75 153.235 487.993 151.393C489.746 148.781 490.586 145.662 490.383 142.523Z" fill="#E6E6E6"/>
<path d="M838.133 466.512C838.516 484.717 836.004 502.868 830.69 520.284C830.504 520.917 830.28 521.549 830.057 522.182H720.502C722.068 514.47 724.554 506.974 727.908 499.854C737.025 480.504 751.91 463.944 766.609 447.496C786.853 424.833 806.613 402.356 809.739 372.884C817.763 385.117 824.168 398.338 828.792 412.218C823.13 414.315 817.934 417.501 813.498 421.595C812.269 422.749 810.967 424.424 811.6 426.024C812.195 427.363 813.832 427.81 815.284 428.108C818.782 428.778 822.28 429.447 825.778 430.08C828.531 430.638 831.322 431.159 834.113 431.68C836.566 443.135 837.912 454.799 838.133 466.512Z" fill="#F2F2F2"/>
<path d="M930.16 454.455C912.596 465.135 901.432 481.657 892.315 500.152C884.381 501.96 877.056 505.808 871.066 511.316C869.801 512.47 868.498 514.144 869.168 515.744C869.726 517.084 871.401 517.531 872.852 517.828C876.313 518.498 879.848 519.168 883.309 519.801C882.974 520.582 882.639 521.401 882.304 522.182H766.2C771.47 515.074 777.307 508.404 783.653 502.236C785.03 500.859 786.444 499.557 787.895 498.217C802.695 484.841 819.69 474.116 838.133 466.512C867.186 454.366 898.958 450.203 930.16 454.455Z" fill="#F2F2F2"/>
<path d="M785.551 522.182H682.173C681.608 513.904 681.658 505.595 682.322 497.324C686.452 446.23 714.25 397.556 756.189 368.083C750.831 387.173 753.584 406.152 759.166 425.205C758.385 425.466 757.604 425.689 756.896 425.987C751.235 428.084 746.039 431.27 741.602 435.364C740.374 436.518 739.072 438.193 739.704 439.793C740.262 441.132 741.937 441.579 743.388 441.877C746.886 442.546 750.384 443.216 753.845 443.849C756.636 444.407 759.427 444.928 762.218 445.486C763.52 445.71 764.823 445.97 766.125 446.23C766.311 446.677 766.423 447.086 766.609 447.496C773.159 465.544 780.303 483.741 783.653 502.236C784.482 506.877 785.053 511.561 785.364 516.265C785.476 518.238 785.551 520.21 785.551 522.182Z" fill="#F2F2F2"/>
<path d="M222.133 466.512C222.516 484.717 220.004 502.868 214.69 520.284C214.504 520.917 214.28 521.549 214.057 522.182H104.502C106.068 514.47 108.554 506.974 111.908 499.854C121.025 480.504 135.91 463.944 150.609 447.496C170.853 424.833 190.613 402.356 193.739 372.884C201.763 385.117 208.168 398.338 212.792 412.218C207.13 414.315 201.934 417.501 197.498 421.595C196.269 422.749 194.967 424.424 195.6 426.024C196.195 427.363 197.832 427.81 199.284 428.108C202.782 428.778 206.28 429.447 209.778 430.08C212.531 430.638 215.322 431.159 218.113 431.68C220.566 443.135 221.912 454.799 222.133 466.512Z" fill="#F2F2F2"/>
<path d="M314.16 454.455C296.596 465.135 285.432 481.657 276.315 500.152C268.381 501.96 261.056 505.808 255.066 511.316C253.801 512.47 252.498 514.144 253.168 515.744C253.726 517.084 255.401 517.531 256.852 517.828C260.313 518.498 263.848 519.168 267.309 519.801C266.974 520.582 266.639 521.401 266.304 522.182H150.2C155.47 515.074 161.307 508.404 167.653 502.236C169.03 500.859 170.444 499.557 171.895 498.217C186.695 484.841 203.69 474.116 222.133 466.512C251.186 454.366 282.958 450.203 314.16 454.455Z" fill="#F2F2F2"/>
<path d="M169.551 522.182H66.1727C65.6082 513.904 65.658 505.595 66.3217 497.324C70.4523 446.23 98.2503 397.556 140.189 368.083C134.831 387.173 137.584 406.152 143.166 425.205C142.385 425.466 141.604 425.689 140.896 425.987C135.235 428.084 130.039 431.27 125.602 435.364C124.374 436.518 123.072 438.193 123.704 439.793C124.262 441.132 125.937 441.579 127.388 441.877C130.886 442.546 134.384 443.216 137.845 443.849C140.636 444.407 143.427 444.928 146.218 445.486C147.52 445.71 148.823 445.97 150.125 446.23C150.311 446.677 150.423 447.086 150.609 447.496C157.159 465.544 164.303 483.741 167.653 502.236C168.482 506.877 169.053 511.561 169.364 516.265C169.476 518.238 169.551 520.21 169.551 522.182Z" fill="#F2F2F2"/>
<path d="M554.41 478.78L646.78 486.98L647.77 487.07V92.93C647.44 92.7 647.11 92.47 646.78 92.24C627.529 78.7747 606.705 67.7127 584.77 59.3L580.05 124.4L579.62 130.36L574.95 194.92L573.51 214.78L554.58 476.48L554.41 478.78Z" fill="#E6E6E6"/>
<path d="M325.98 85.59C325.32 86.01 324.66 86.43 324 86.87V487.07L325.98 486.89L417.35 478.78L417.18 476.48L398.25 214.78L396.81 194.92L392.14 130.36L391.71 124.4L386.76 56.13C365.413 63.5294 345.013 73.4175 325.98 85.59Z" fill="#E6E6E6"/>
<path d="M324 86.87C322.67 87.73 321.34 88.61 320.03 89.5V492.53C320.03 502.6 326 511.04 333.98 513.19C335.284 513.543 336.629 513.721 337.98 513.72H634.78C636.128 513.722 637.47 513.544 638.77 513.19C641.736 512.367 644.425 510.757 646.55 508.53C650.603 504.198 652.819 498.462 652.73 492.53V96.51C651.09 95.3 649.44 94.1 647.77 92.93C647.44 92.7 647.11 92.47 646.78 92.24V492.53C646.782 493.827 646.628 495.12 646.32 496.38C644.91 502.33 640.26 506.69 634.78 506.69H337.98C331.36 506.69 325.98 500.34 325.98 492.53V85.59C325.32 86.01 324.66 86.43 324 86.87Z" fill="#E6E6E6"/>
<path d="M649.755 124.404H323.003V130.363H649.755V124.404Z" fill="#E6E6E6"/>
<path d="M549.68 48.39C547.7 47.9 545.72 47.44 543.72 47.01V208.82H549.68V48.39Z" fill="#E6E6E6"/>
<path d="M429.04 45C427.05 45.37 425.06 45.75 423.08 46.16V208.82H429.04V45Z" fill="#E6E6E6"/>
<path d="M258.94 503.29C258.939 506.71 259.594 510.097 260.87 513.27C261.36 514.5 261.945 515.69 262.62 516.83C263.491 518.316 264.503 519.716 265.64 521.01C268.152 523.873 271.247 526.166 274.716 527.737C278.186 529.309 281.951 530.121 285.76 530.12H677.07C684.183 530.12 691.005 527.294 696.035 522.265C701.064 517.235 703.89 510.413 703.89 503.3C703.89 496.187 701.064 489.365 696.035 484.335C691.005 479.306 684.183 476.48 677.07 476.48H285.76C278.651 476.487 271.835 479.313 266.807 484.34C261.779 489.366 258.95 496.181 258.94 503.29Z" fill="#E6E6E6"/>
<path d="M323.003 214.782L647.768 214.782V194.919L323.003 194.919V214.782Z" fill="#E6E6E6"/>
<path d="M499.29 199.885H471.481C471.481 196.987 472.632 194.209 474.681 192.16C476.73 190.111 479.509 188.96 482.406 188.96H488.365C489.8 188.96 491.22 189.243 492.546 189.792C493.871 190.341 495.076 191.145 496.09 192.16C497.104 193.174 497.909 194.379 498.458 195.704C499.007 197.029 499.29 198.45 499.29 199.885Z" fill="#E6E6E6"/>
<path d="M50 518.61C58.6873 528.903 68.0835 538.577 78.12 547.56H884.7C894.737 538.577 904.133 528.903 912.82 518.61H50Z" fill="#3F3D56"/>
<path d="M446.69 421.8V524.36H518.54V421.8C518.541 421.062 518.306 420.344 517.868 419.75C517.431 419.156 516.815 418.718 516.11 418.5C515.778 418.39 515.43 418.336 515.08 418.34H450.16C449.705 418.339 449.254 418.428 448.833 418.601C448.413 418.775 448.03 419.029 447.708 419.351C447.386 419.672 447.13 420.054 446.955 420.474C446.781 420.894 446.69 421.345 446.69 421.8ZM474.73 457.04C474.749 455.018 475.565 453.086 477.002 451.663C478.438 450.24 480.378 449.442 482.4 449.442C484.422 449.442 486.362 450.24 487.798 451.663C489.234 453.086 490.051 455.018 490.07 457.04V468.94C490.06 470.967 489.247 472.908 487.81 474.338C486.372 475.768 484.427 476.571 482.4 476.571C480.373 476.571 478.428 475.768 476.99 474.338C475.553 472.908 474.74 470.967 474.73 468.94V457.04Z" fill="#2F2E41"/>
<path d="M446.47 521.08V530.97C446.472 531.482 446.675 531.973 447.037 532.336C447.398 532.7 447.888 532.906 448.4 532.91H516.83C517.343 532.907 517.834 532.702 518.195 532.338C518.557 531.975 518.76 531.483 518.76 530.97V521.08H446.47Z" fill="#3F3D56"/>
<path d="M333.66 267.28V454.54C333.662 456.926 334.611 459.214 336.298 460.902C337.986 462.589 340.274 463.538 342.66 463.54H620.16C622.546 463.538 624.834 462.589 626.522 460.902C628.209 459.214 629.158 456.926 629.16 454.54V267.28C629.154 264.896 628.204 262.611 626.517 260.926C624.83 259.241 622.544 258.293 620.16 258.29H342.66C340.276 258.293 337.99 259.241 336.303 260.926C334.616 262.611 333.666 264.896 333.66 267.28Z" fill="#3F3D56"/>
<path d="M340.17 269.61V452.23C340.172 453.505 340.68 454.727 341.581 455.629C342.483 456.53 343.705 457.038 344.98 457.04H617.85C619.125 457.038 620.347 456.53 621.249 455.629C622.15 454.727 622.658 453.505 622.66 452.23V269.61C622.66 268.333 622.153 267.109 621.252 266.205C620.35 265.302 619.127 264.793 617.85 264.79H344.98C343.703 264.793 342.48 265.302 341.578 266.205C340.677 267.109 340.17 268.333 340.17 269.61Z" fill="#7E99D4"/>
<path d="M395.81 535.24C396.088 535.588 396.441 535.869 396.843 536.061C397.244 536.254 397.685 536.352 398.13 536.35H560.47C560.914 536.349 561.352 536.25 561.753 536.059C562.154 535.867 562.507 535.589 562.786 535.245C563.066 534.9 563.265 534.497 563.37 534.065C563.474 533.634 563.481 533.185 563.39 532.75L560.87 520.78C560.766 520.292 560.541 519.838 560.216 519.459C559.891 519.08 559.476 518.788 559.01 518.61C558.672 518.477 558.313 518.41 557.95 518.41H400.64C400.277 518.41 399.918 518.477 399.58 518.61C399.114 518.788 398.699 519.08 398.374 519.459C398.049 519.838 397.825 520.292 397.72 520.78L395.2 532.75C395.11 533.184 395.119 533.633 395.224 534.064C395.33 534.494 395.53 534.896 395.81 535.24Z" fill="#2F2E41"/>
<path d="M552.285 523.566H556.309C556.578 523.566 556.797 523.347 556.797 523.078V521.054C556.797 520.784 556.578 520.566 556.309 520.566H552.285C552.016 520.566 551.797 520.784 551.797 521.054V523.078C551.797 523.347 552.016 523.566 552.285 523.566Z" fill="#3F3D56"/>
<path d="M542.285 523.566H546.309C546.578 523.566 546.797 523.347 546.797 523.078V521.054C546.797 520.784 546.578 520.566 546.309 520.566H542.285C542.016 520.566 541.797 520.784 541.797 521.054V523.078C541.797 523.347 542.016 523.566 542.285 523.566Z" fill="#3F3D56"/>
<path d="M532.285 523.566H536.309C536.578 523.566 536.797 523.347 536.797 523.078V521.054C536.797 520.784 536.578 520.566 536.309 520.566H532.285C532.016 520.566 531.797 520.784 531.797 521.054V523.078C531.797 523.347 532.016 523.566 532.285 523.566Z" fill="#3F3D56"/>
<path d="M522.285 523.566H526.309C526.578 523.566 526.797 523.347 526.797 523.078V521.054C526.797 520.784 526.578 520.566 526.309 520.566H522.285C522.016 520.566 521.797 520.784 521.797 521.054V523.078C521.797 523.347 522.016 523.566 522.285 523.566Z" fill="#3F3D56"/>
<path d="M512.285 523.566H516.309C516.578 523.566 516.797 523.347 516.797 523.078V521.054C516.797 520.784 516.578 520.566 516.309 520.566H512.285C512.016 520.566 511.797 520.784 511.797 521.054V523.078C511.797 523.347 512.016 523.566 512.285 523.566Z" fill="#3F3D56"/>
<path d="M502.285 523.566H506.309C506.578 523.566 506.797 523.347 506.797 523.078V521.054C506.797 520.784 506.578 520.566 506.309 520.566H502.285C502.016 520.566 501.797 520.784 501.797 521.054V523.078C501.797 523.347 502.016 523.566 502.285 523.566Z" fill="#3F3D56"/>
<path d="M492.285 523.566H496.309C496.578 523.566 496.797 523.347 496.797 523.078V521.054C496.797 520.784 496.578 520.566 496.309 520.566H492.285C492.016 520.566 491.797 520.784 491.797 521.054V523.078C491.797 523.347 492.016 523.566 492.285 523.566Z" fill="#3F3D56"/>
<path d="M482.285 523.566H486.309C486.578 523.566 486.797 523.347 486.797 523.078V521.054C486.797 520.784 486.578 520.566 486.309 520.566H482.285C482.016 520.566 481.797 520.784 481.797 521.054V523.078C481.797 523.347 482.016 523.566 482.285 523.566Z" fill="#3F3D56"/>
<path d="M472.285 523.566H476.309C476.578 523.566 476.797 523.347 476.797 523.078V521.054C476.797 520.784 476.578 520.566 476.309 520.566H472.285C472.016 520.566 471.797 520.784 471.797 521.054V523.078C471.797 523.347 472.016 523.566 472.285 523.566Z" fill="#3F3D56"/>
<path d="M462.285 523.566H466.309C466.578 523.566 466.797 523.347 466.797 523.078V521.054C466.797 520.784 466.578 520.566 466.309 520.566H462.285C462.016 520.566 461.797 520.784 461.797 521.054V523.078C461.797 523.347 462.016 523.566 462.285 523.566Z" fill="#3F3D56"/>
<path d="M452.285 523.566H456.309C456.578 523.566 456.797 523.347 456.797 523.078V521.054C456.797 520.784 456.578 520.566 456.309 520.566H452.285C452.016 520.566 451.797 520.784 451.797 521.054V523.078C451.797 523.347 452.016 523.566 452.285 523.566Z" fill="#3F3D56"/>
<path d="M442.285 523.566H446.309C446.578 523.566 446.797 523.347 446.797 523.078V521.054C446.797 520.784 446.578 520.566 446.309 520.566H442.285C442.016 520.566 441.797 520.784 441.797 521.054V523.078C441.797 523.347 442.016 523.566 442.285 523.566Z" fill="#3F3D56"/>
<path d="M432.285 523.566H436.309C436.578 523.566 436.797 523.347 436.797 523.078V521.054C436.797 520.784 436.578 520.566 436.309 520.566H432.285C432.016 520.566 431.797 520.784 431.797 521.054V523.078C431.797 523.347 432.016 523.566 432.285 523.566Z" fill="#3F3D56"/>
<path d="M422.285 523.566H426.309C426.578 523.566 426.797 523.347 426.797 523.078V521.054C426.797 520.784 426.578 520.566 426.309 520.566H422.285C422.016 520.566 421.797 520.784 421.797 521.054V523.078C421.797 523.347 422.016 523.566 422.285 523.566Z" fill="#3F3D56"/>
<path d="M412.285 523.566H416.309C416.578 523.566 416.797 523.347 416.797 523.078V521.054C416.797 520.784 416.578 520.566 416.309 520.566H412.285C412.016 520.566 411.797 520.784 411.797 521.054V523.078C411.797 523.347 412.016 523.566 412.285 523.566Z" fill="#3F3D56"/>
<path d="M402.285 523.566H406.309C406.578 523.566 406.797 523.347 406.797 523.078V521.054C406.797 520.784 406.578 520.566 406.309 520.566H402.285C402.016 520.566 401.797 520.784 401.797 521.054V523.078C401.797 523.347 402.016 523.566 402.285 523.566Z" fill="#3F3D56"/>
<path d="M552.403 528.566H556.427C556.697 528.566 556.915 528.347 556.915 528.078V526.054C556.915 525.784 556.697 525.566 556.427 525.566H552.403C552.134 525.566 551.915 525.784 551.915 526.054V528.078C551.915 528.347 552.134 528.566 552.403 528.566Z" fill="#3F3D56"/>
<path d="M542.403 528.566H546.427C546.697 528.566 546.915 528.347 546.915 528.078V526.054C546.915 525.784 546.697 525.566 546.427 525.566H542.403C542.134 525.566 541.915 525.784 541.915 526.054V528.078C541.915 528.347 542.134 528.566 542.403 528.566Z" fill="#3F3D56"/>
<path d="M532.403 528.566H536.427C536.697 528.566 536.915 528.347 536.915 528.078V526.054C536.915 525.784 536.697 525.566 536.427 525.566H532.403C532.134 525.566 531.915 525.784 531.915 526.054V528.078C531.915 528.347 532.134 528.566 532.403 528.566Z" fill="#3F3D56"/>
<path d="M522.403 528.566H526.427C526.697 528.566 526.915 528.347 526.915 528.078V526.054C526.915 525.784 526.697 525.566 526.427 525.566H522.403C522.134 525.566 521.915 525.784 521.915 526.054V528.078C521.915 528.347 522.134 528.566 522.403 528.566Z" fill="#3F3D56"/>
<path d="M512.403 528.566H516.427C516.697 528.566 516.915 528.347 516.915 528.078V526.054C516.915 525.784 516.697 525.566 516.427 525.566H512.403C512.134 525.566 511.915 525.784 511.915 526.054V528.078C511.915 528.347 512.134 528.566 512.403 528.566Z" fill="#3F3D56"/>
<path d="M502.403 528.566H506.427C506.697 528.566 506.915 528.347 506.915 528.078V526.054C506.915 525.784 506.697 525.566 506.427 525.566H502.403C502.134 525.566 501.915 525.784 501.915 526.054V528.078C501.915 528.347 502.134 528.566 502.403 528.566Z" fill="#3F3D56"/>
<path d="M492.403 528.566H496.427C496.697 528.566 496.915 528.347 496.915 528.078V526.054C496.915 525.784 496.697 525.566 496.427 525.566H492.403C492.134 525.566 491.915 525.784 491.915 526.054V528.078C491.915 528.347 492.134 528.566 492.403 528.566Z" fill="#3F3D56"/>
<path d="M482.403 528.566H486.427C486.697 528.566 486.915 528.347 486.915 528.078V526.054C486.915 525.784 486.697 525.566 486.427 525.566H482.403C482.134 525.566 481.915 525.784 481.915 526.054V528.078C481.915 528.347 482.134 528.566 482.403 528.566Z" fill="#3F3D56"/>
<path d="M472.403 528.566H476.427C476.697 528.566 476.915 528.347 476.915 528.078V526.054C476.915 525.784 476.697 525.566 476.427 525.566H472.403C472.134 525.566 471.915 525.784 471.915 526.054V528.078C471.915 528.347 472.134 528.566 472.403 528.566Z" fill="#3F3D56"/>
<path d="M462.403 528.566H466.427C466.697 528.566 466.915 528.347 466.915 528.078V526.054C466.915 525.784 466.697 525.566 466.427 525.566H462.403C462.134 525.566 461.915 525.784 461.915 526.054V528.078C461.915 528.347 462.134 528.566 462.403 528.566Z" fill="#3F3D56"/>
<path d="M452.403 528.566H456.427C456.697 528.566 456.915 528.347 456.915 528.078V526.054C456.915 525.784 456.697 525.566 456.427 525.566H452.403C452.134 525.566 451.915 525.784 451.915 526.054V528.078C451.915 528.347 452.134 528.566 452.403 528.566Z" fill="#3F3D56"/>
<path d="M442.403 528.566H446.427C446.697 528.566 446.915 528.347 446.915 528.078V526.054C446.915 525.784 446.697 525.566 446.427 525.566H442.403C442.134 525.566 441.915 525.784 441.915 526.054V528.078C441.915 528.347 442.134 528.566 442.403 528.566Z" fill="#3F3D56"/>
<path d="M432.403 528.566H436.427C436.697 528.566 436.915 528.347 436.915 528.078V526.054C436.915 525.784 436.697 525.566 436.427 525.566H432.403C432.134 525.566 431.915 525.784 431.915 526.054V528.078C431.915 528.347 432.134 528.566 432.403 528.566Z" fill="#3F3D56"/>
<path d="M422.403 528.566H426.427C426.697 528.566 426.915 528.347 426.915 528.078V526.054C426.915 525.784 426.697 525.566 426.427 525.566H422.403C422.134 525.566 421.915 525.784 421.915 526.054V528.078C421.915 528.347 422.134 528.566 422.403 528.566Z" fill="#3F3D56"/>
<path d="M412.403 528.566H416.427C416.697 528.566 416.915 528.347 416.915 528.078V526.054C416.915 525.784 416.697 525.566 416.427 525.566H412.403C412.134 525.566 411.915 525.784 411.915 526.054V528.078C411.915 528.347 412.134 528.566 412.403 528.566Z" fill="#3F3D56"/>
<path d="M402.403 528.566H406.427C406.697 528.566 406.915 528.347 406.915 528.078V526.054C406.915 525.784 406.697 525.566 406.427 525.566H402.403C402.134 525.566 401.915 525.784 401.915 526.054V528.078C401.915 528.347 402.134 528.566 402.403 528.566Z" fill="#3F3D56"/>
<path d="M469.403 534.566H508.427C508.697 534.566 508.915 534.347 508.915 534.078V532.054C508.915 531.784 508.697 531.566 508.427 531.566H469.403C469.134 531.566 468.915 531.784 468.915 532.054V534.078C468.915 534.347 469.134 534.566 469.403 534.566Z" fill="#3F3D56"/>
<path d="M358.692 289.947H614.015C614.281 289.941 614.533 289.831 614.719 289.642C614.905 289.452 615.009 289.197 615.009 288.931C615.009 288.666 614.905 288.411 614.719 288.221C614.533 288.031 614.281 287.922 614.015 287.916H358.692C358.426 287.922 358.174 288.031 357.988 288.221C357.803 288.411 357.699 288.666 357.699 288.931C357.699 289.197 357.803 289.452 357.988 289.642C358.174 289.831 358.426 289.941 358.692 289.947Z" fill="#3F3D56"/>
<path d="M596.635 282.732C599.921 282.732 602.585 280.008 602.585 276.649C602.585 273.289 599.921 270.566 596.635 270.566C593.349 270.566 590.685 273.289 590.685 276.649C590.685 280.008 593.349 282.732 596.635 282.732Z" fill="#3F3D56"/>
<path d="M576.079 282.732C579.365 282.732 582.029 280.008 582.029 276.649C582.029 273.289 579.365 270.566 576.079 270.566C572.793 270.566 570.129 273.289 570.129 276.649C570.129 280.008 572.793 282.732 576.079 282.732Z" fill="#3F3D56"/>
<path d="M555.523 282.732C558.809 282.732 561.473 280.008 561.473 276.649C561.473 273.289 558.809 270.566 555.523 270.566C552.237 270.566 549.573 273.289 549.573 276.649C549.573 280.008 552.237 282.732 555.523 282.732Z" fill="#3F3D56"/>
<path d="M369.98 273.18C369.979 273.324 370.007 273.466 370.061 273.599C370.116 273.733 370.196 273.854 370.297 273.956C370.398 274.058 370.519 274.139 370.651 274.195C370.784 274.25 370.926 274.279 371.07 274.28H385.67C385.959 274.273 386.233 274.154 386.435 273.947C386.637 273.741 386.75 273.464 386.75 273.175C386.75 272.886 386.637 272.609 386.435 272.403C386.233 272.196 385.959 272.077 385.67 272.07H371.07C370.779 272.074 370.5 272.192 370.296 272.4C370.092 272.608 369.978 272.889 369.98 273.18Z" fill="#3F3D56"/>
<path d="M369.98 277.33C369.979 277.474 370.007 277.616 370.061 277.749C370.116 277.883 370.196 278.004 370.297 278.106C370.398 278.208 370.519 278.289 370.651 278.345C370.784 278.4 370.926 278.429 371.07 278.43H385.67C385.959 278.424 386.234 278.304 386.436 278.098C386.638 277.891 386.751 277.614 386.751 277.325C386.751 277.036 386.638 276.759 386.436 276.552C386.234 276.346 385.959 276.226 385.67 276.22H371.07C370.779 276.224 370.5 276.342 370.296 276.55C370.092 276.758 369.978 277.039 369.98 277.33Z" fill="#3F3D56"/>
<path d="M369.98 281.47C369.978 281.762 370.092 282.042 370.296 282.25C370.5 282.458 370.779 282.576 371.07 282.58H385.67C385.959 282.573 386.233 282.454 386.435 282.247C386.637 282.041 386.75 281.764 386.75 281.475C386.75 281.186 386.637 280.909 386.435 280.703C386.233 280.496 385.959 280.377 385.67 280.37H371.07C370.926 280.371 370.784 280.4 370.651 280.455C370.519 280.511 370.398 280.592 370.297 280.694C370.196 280.796 370.116 280.917 370.061 281.051C370.007 281.184 369.979 281.326 369.98 281.47Z" fill="#3F3D56"/>
<path d="M374.492 313.543H369.246C367.655 313.543 366.366 314.833 366.366 316.423C366.366 318.014 367.655 319.303 369.246 319.303H374.492C376.083 319.303 377.372 318.014 377.372 316.423C377.372 314.833 376.083 313.543 374.492 313.543Z" fill="#E6E6E6"/>
<path d="M434.492 313.543H429.246C427.655 313.543 426.366 314.833 426.366 316.423C426.366 318.014 427.655 319.303 429.246 319.303H434.492C436.083 319.303 437.372 318.014 437.372 316.423C437.372 314.833 436.083 313.543 434.492 313.543Z" fill="#E6E6E6"/>
<path d="M451.492 313.543H446.246C444.655 313.543 443.366 314.833 443.366 316.423C443.366 318.014 444.655 319.303 446.246 319.303H451.492C453.083 319.303 454.372 318.014 454.372 316.423C454.372 314.833 453.083 313.543 451.492 313.543Z" fill="#E6E6E6"/>
<path d="M418.172 313.063H385.566C383.976 313.063 382.686 314.353 382.686 315.943C382.686 317.534 383.976 318.823 385.566 318.823H418.172C419.762 318.823 421.052 317.534 421.052 315.943C421.052 314.353 419.762 313.063 418.172 313.063Z" fill="#E6E6E6"/>
<path d="M498.172 313.063H465.566C463.976 313.063 462.686 314.353 462.686 315.943C462.686 317.534 463.976 318.823 465.566 318.823H498.172C499.762 318.823 501.052 317.534 501.052 315.943C501.052 314.353 499.762 313.063 498.172 313.063Z" fill="#E6E6E6"/>
<path d="M390.492 326.543H385.246C383.655 326.543 382.366 327.833 382.366 329.423C382.366 331.014 383.655 332.303 385.246 332.303H390.492C392.083 332.303 393.372 331.014 393.372 329.423C393.372 327.833 392.083 326.543 390.492 326.543Z" fill="#E6E6E6"/>
<path d="M450.492 326.543H445.246C443.655 326.543 442.366 327.833 442.366 329.423C442.366 331.014 443.655 332.303 445.246 332.303H450.492C452.083 332.303 453.372 331.014 453.372 329.423C453.372 327.833 452.083 326.543 450.492 326.543Z" fill="#E6E6E6"/>
<path d="M467.492 326.543H462.246C460.655 326.543 459.366 327.833 459.366 329.423C459.366 331.014 460.655 332.303 462.246 332.303H467.492C469.083 332.303 470.372 331.014 470.372 329.423C470.372 327.833 469.083 326.543 467.492 326.543Z" fill="#E6E6E6"/>
<path d="M434.172 326.063H401.566C399.976 326.063 398.686 327.353 398.686 328.943C398.686 330.534 399.976 331.823 401.566 331.823H434.172C435.762 331.823 437.052 330.534 437.052 328.943C437.052 327.353 435.762 326.063 434.172 326.063Z" fill="#E6E6E6"/>
<path d="M514.172 326.063H481.566C479.976 326.063 478.686 327.353 478.686 328.943C478.686 330.534 479.976 331.823 481.566 331.823H514.172C515.762 331.823 517.052 330.534 517.052 328.943C517.052 327.353 515.762 326.063 514.172 326.063Z" fill="#E6E6E6"/>
<path d="M406.492 339.543H401.246C399.655 339.543 398.366 340.833 398.366 342.423C398.366 344.014 399.655 345.303 401.246 345.303H406.492C408.083 345.303 409.372 344.014 409.372 342.423C409.372 340.833 408.083 339.543 406.492 339.543Z" fill="#E6E6E6"/>
<path d="M466.492 339.543H461.246C459.655 339.543 458.366 340.833 458.366 342.423C458.366 344.014 459.655 345.303 461.246 345.303H466.492C468.083 345.303 469.372 344.014 469.372 342.423C469.372 340.833 468.083 339.543 466.492 339.543Z" fill="#E6E6E6"/>
<path d="M483.492 339.543H478.246C476.655 339.543 475.366 340.833 475.366 342.423C475.366 344.014 476.655 345.303 478.246 345.303H483.492C485.083 345.303 486.372 344.014 486.372 342.423C486.372 340.833 485.083 339.543 483.492 339.543Z" fill="#E6E6E6"/>
<path d="M450.172 339.063H417.566C415.976 339.063 414.686 340.353 414.686 341.943C414.686 343.534 415.976 344.823 417.566 344.823H450.172C451.762 344.823 453.052 343.534 453.052 341.943C453.052 340.353 451.762 339.063 450.172 339.063Z" fill="#E6E6E6"/>
<path d="M530.172 339.063H497.566C495.976 339.063 494.686 340.353 494.686 341.943C494.686 343.534 495.976 344.823 497.566 344.823H530.172C531.762 344.823 533.052 343.534 533.052 341.943C533.052 340.353 531.762 339.063 530.172 339.063Z" fill="#E6E6E6"/>
<path d="M422.492 352.543H417.246C415.655 352.543 414.366 353.833 414.366 355.423C414.366 357.014 415.655 358.303 417.246 358.303H422.492C424.083 358.303 425.372 357.014 425.372 355.423C425.372 353.833 424.083 352.543 422.492 352.543Z" fill="#E6E6E6"/>
<path d="M482.492 352.543H477.246C475.655 352.543 474.366 353.833 474.366 355.423C474.366 357.014 475.655 358.303 477.246 358.303H482.492C484.083 358.303 485.372 357.014 485.372 355.423C485.372 353.833 484.083 352.543 482.492 352.543Z" fill="#E6E6E6"/>
<path d="M499.492 352.543H494.246C492.655 352.543 491.366 353.833 491.366 355.423C491.366 357.014 492.655 358.303 494.246 358.303H499.492C501.083 358.303 502.372 357.014 502.372 355.423C502.372 353.833 501.083 352.543 499.492 352.543Z" fill="#E6E6E6"/>
<path d="M466.172 352.063H433.566C431.976 352.063 430.686 353.353 430.686 354.943C430.686 356.534 431.976 357.823 433.566 357.823H466.172C467.762 357.823 469.052 356.534 469.052 354.943C469.052 353.353 467.762 352.063 466.172 352.063Z" fill="#E6E6E6"/>
<path d="M434.492 404.237H429.246C427.655 404.237 426.366 405.526 426.366 407.117C426.366 408.707 427.655 409.997 429.246 409.997H434.492C436.083 409.997 437.372 408.707 437.372 407.117C437.372 405.526 436.083 404.237 434.492 404.237Z" fill="#E6E6E6"/>
<path d="M451.492 404.237H446.246C444.655 404.237 443.366 405.526 443.366 407.117C443.366 408.707 444.655 409.997 446.246 409.997H451.492C453.083 409.997 454.372 408.707 454.372 407.117C454.372 405.526 453.083 404.237 451.492 404.237Z" fill="#E6E6E6"/>
<path d="M498.172 404.717H465.566C463.976 404.717 462.686 406.006 462.686 407.597C462.686 409.188 463.976 410.477 465.566 410.477H498.172C499.762 410.477 501.052 409.188 501.052 407.597C501.052 406.006 499.762 404.717 498.172 404.717Z" fill="#E6E6E6"/>
<path d="M374.492 404.237H369.246C367.655 404.237 366.366 405.526 366.366 407.117C366.366 408.707 367.655 409.997 369.246 409.997H374.492C376.083 409.997 377.372 408.707 377.372 407.117C377.372 405.526 376.083 404.237 374.492 404.237Z" fill="#E6E6E6"/>
<path d="M418.172 404.717H385.566C383.976 404.717 382.686 406.006 382.686 407.597C382.686 409.188 383.976 410.477 385.566 410.477H418.172C419.762 410.477 421.052 409.188 421.052 407.597C421.052 406.006 419.762 404.717 418.172 404.717Z" fill="#E6E6E6"/>
<path d="M390.492 391.237H385.246C383.655 391.237 382.366 392.526 382.366 394.117C382.366 395.707 383.655 396.997 385.246 396.997H390.492C392.083 396.997 393.372 395.707 393.372 394.117C393.372 392.526 392.083 391.237 390.492 391.237Z" fill="#E6E6E6"/>
<path d="M450.492 391.237H445.246C443.655 391.237 442.366 392.526 442.366 394.117C442.366 395.707 443.655 396.997 445.246 396.997H450.492C452.083 396.997 453.372 395.707 453.372 394.117C453.372 392.526 452.083 391.237 450.492 391.237Z" fill="#E6E6E6"/>
<path d="M467.492 391.237H462.246C460.655 391.237 459.366 392.526 459.366 394.117C459.366 395.707 460.655 396.997 462.246 396.997H467.492C469.083 396.997 470.372 395.707 470.372 394.117C470.372 392.526 469.083 391.237 467.492 391.237Z" fill="#E6E6E6"/>
<path d="M434.172 391.717H401.566C399.976 391.717 398.686 393.006 398.686 394.597C398.686 396.188 399.976 397.477 401.566 397.477H434.172C435.762 397.477 437.052 396.188 437.052 394.597C437.052 393.006 435.762 391.717 434.172 391.717Z" fill="#E6E6E6"/>
<path d="M406.492 378.237H401.246C399.655 378.237 398.366 379.526 398.366 381.117C398.366 382.707 399.655 383.997 401.246 383.997H406.492C408.083 383.997 409.372 382.707 409.372 381.117C409.372 379.526 408.083 378.237 406.492 378.237Z" fill="#E6E6E6"/>
<path d="M466.492 378.237H461.246C459.655 378.237 458.366 379.526 458.366 381.117C458.366 382.707 459.655 383.997 461.246 383.997H466.492C468.083 383.997 469.372 382.707 469.372 381.117C469.372 379.526 468.083 378.237 466.492 378.237Z" fill="#E6E6E6"/>
<path d="M483.492 378.237H478.246C476.655 378.237 475.366 379.526 475.366 381.117C475.366 382.707 476.655 383.997 478.246 383.997H483.492C485.083 383.997 486.372 382.707 486.372 381.117C486.372 379.526 485.083 378.237 483.492 378.237Z" fill="#E6E6E6"/>
<path d="M450.172 378.717H417.566C415.976 378.717 414.686 380.006 414.686 381.597C414.686 383.188 415.976 384.477 417.566 384.477H450.172C451.762 384.477 453.052 383.188 453.052 381.597C453.052 380.006 451.762 378.717 450.172 378.717Z" fill="#E6E6E6"/>
<path d="M422.492 365.237H417.246C415.655 365.237 414.366 366.526 414.366 368.117C414.366 369.707 415.655 370.997 417.246 370.997H422.492C424.083 370.997 425.372 369.707 425.372 368.117C425.372 366.526 424.083 365.237 422.492 365.237Z" fill="#E6E6E6"/>
<path d="M482.492 365.237H477.246C475.655 365.237 474.366 366.526 474.366 368.117C474.366 369.707 475.655 370.997 477.246 370.997H482.492C484.083 370.997 485.372 369.707 485.372 368.117C485.372 366.526 484.083 365.237 482.492 365.237Z" fill="#E6E6E6"/>
<path d="M499.492 365.237H494.246C492.655 365.237 491.366 366.526 491.366 368.117C491.366 369.707 492.655 370.997 494.246 370.997H499.492C501.083 370.997 502.372 369.707 502.372 368.117C502.372 366.526 501.083 365.237 499.492 365.237Z" fill="#E6E6E6"/>
<path d="M466.172 365.717H433.566C431.976 365.717 430.686 367.006 430.686 368.597C430.686 370.188 431.976 371.477 433.566 371.477H466.172C467.762 371.477 469.052 370.188 469.052 368.597C469.052 367.006 467.762 365.717 466.172 365.717Z" fill="#E6E6E6"/>
<path d="M399.912 590.952C399.692 591.062 399.472 591.172 399.252 591.272C397.862 591.962 396.462 592.642 395.052 593.312C390.832 595.322 386.559 597.232 382.232 599.042C370.848 603.804 359.166 607.822 347.262 611.072C345.262 598.602 343.322 569.192 341.462 547.562C341.112 543.492 340.762 539.702 340.412 536.352C340.08 531.954 339.448 527.584 338.522 523.272C338.431 522.934 338.3 522.609 338.132 522.302C338.322 524.032 338.522 529.192 338.712 536.352C338.812 539.702 338.902 543.492 339.002 547.562C339.472 568.382 339.962 596.712 340.452 612.842C339.062 613.182 337.662 613.522 336.262 613.842C335.382 614.052 334.492 614.252 333.602 614.442C332.522 614.682 331.442 614.922 330.362 615.142C329.232 615.382 328.102 615.612 326.972 615.832C308.506 619.46 289.731 621.282 270.912 621.272C269.662 621.272 268.422 621.262 267.172 621.252C266.792 621.252 266.412 621.242 266.022 621.232C264.922 621.212 263.782 621.192 262.622 621.162C240.383 620.547 218.289 617.363 196.782 611.672L197.652 547.562L197.802 536.352L197.862 532.102C197.367 533.469 197.07 534.901 196.982 536.352C196.632 539.082 196.272 542.952 195.912 547.562C194.542 565.322 193.132 593.972 191.672 610.272C174.382 605.352 161.742 600.862 145.942 592.962C145.332 592.662 144.712 592.352 144.102 592.042C144.212 591.272 144.332 590.502 144.442 589.712C146.232 577.272 144.122 561.082 146.102 547.562C147.612 537.132 149.172 527.112 150.742 518.612C152.642 508.382 154.572 500.342 156.482 496.432C158.682 491.922 160.882 487.482 163.012 483.232C163.932 481.402 164.835 479.605 165.722 477.842C166.202 476.892 166.682 475.952 167.152 475.032C169.292 470.842 171.312 466.972 173.162 463.542C174.462 461.132 175.662 458.952 176.762 457.042C178.052 454.792 179.192 452.932 180.132 451.522C187.075 440.998 197.406 433.161 209.412 429.312L209.712 429.232L210.002 429.352L210.332 429.502L229.392 422.532L237.902 402.042L281.612 399.352L288.672 404.722L292.282 407.472L296.132 410.402L303.212 415.792L305.222 416.412L308.212 417.332L328.662 423.612L328.872 423.522L329.172 423.602C340.097 427.099 349.661 433.916 356.532 443.102C357.212 443.982 357.842 444.892 358.452 445.812C360.112 448.272 362.352 452.162 364.992 457.042C366.082 459.052 367.232 461.232 368.442 463.542C369.172 464.932 375.472 484.592 381.602 504.672C387.332 523.472 392.912 542.642 393.642 547.562C393.772 548.472 393.912 549.392 394.042 550.302C394.872 555.992 395.692 561.722 396.482 567.312C397.652 575.602 398.792 583.602 399.882 590.752C399.892 590.822 399.902 590.882 399.912 590.952Z" fill="#3F3D56"/>
<path opacity="0.2" d="M353.59 518.566L345.093 485.774L337.59 514.07L353.59 518.566Z" fill="black"/>
<path d="M65.8293 518.186C66.2699 519.469 67.1056 520.579 68.2165 521.357C69.3274 522.135 70.6563 522.541 72.0124 522.517L98.5042 521.835C99.8703 521.808 101.191 521.34 102.269 520.501C103.347 519.662 104.124 518.496 104.485 517.178L108.234 477.091C109.564 477.693 111.012 477.991 112.472 477.962C115.033 477.897 117.464 476.818 119.23 474.961C120.996 473.105 121.952 470.622 121.888 468.061C121.823 465.499 120.744 463.068 118.887 461.302C117.031 459.537 114.549 458.581 111.987 458.645C111.403 458.643 110.821 458.704 110.251 458.826C109.63 458.154 108.876 457.62 108.036 457.258C107.197 456.896 106.291 456.713 105.377 456.723L64.6262 457.775C64.2882 457.787 63.9519 457.829 63.621 457.9C62.7274 458.066 61.8798 458.422 61.1353 458.944C60.3908 459.466 59.7667 460.141 59.3049 460.924C58.8432 461.707 58.5546 462.58 58.4585 463.484C58.3624 464.388 58.4611 465.302 58.7479 466.164L65.8293 518.186ZM109.003 474.369L111.67 464.816C111.974 463.713 111.981 462.549 111.691 461.442C111.82 461.441 111.934 461.38 112.064 461.38C113.893 461.342 115.662 462.031 116.984 463.296C118.306 464.56 119.072 466.298 119.115 468.127C119.158 469.956 118.474 471.727 117.213 473.053C115.952 474.378 114.216 475.149 112.387 475.197C111.205 475.234 110.035 474.948 109.003 474.369Z" fill="#2F2E41"/>
<path d="M63.6211 457.9C64.4892 462.864 74.2501 466.353 85.9869 465.747C96.7796 465.25 105.604 461.46 107.221 456.968C106.623 456.791 106.001 456.708 105.377 456.723L64.6263 457.775C64.2882 457.787 63.9519 457.829 63.6211 457.9Z" fill="#3F3D56"/>
<path d="M88.1379 496.158C88.1916 496.144 88.2426 496.122 88.2889 496.091L94.042 492.325C94.1116 492.28 94.1687 492.218 94.2083 492.145C94.2478 492.072 94.2686 491.99 94.2686 491.907C94.2686 491.824 94.248 491.743 94.2084 491.67C94.1689 491.597 94.1118 491.535 94.0423 491.489L88.0625 487.573C88.0077 487.536 87.9461 487.511 87.8815 487.499C87.8169 487.486 87.7505 487.487 87.686 487.5C87.6216 487.513 87.5604 487.539 87.5059 487.576C87.4515 487.613 87.4049 487.66 87.3688 487.715C87.3328 487.77 87.3079 487.832 87.2957 487.897C87.2835 487.961 87.2842 488.028 87.2977 488.092C87.3113 488.157 87.3374 488.218 87.3746 488.272C87.4119 488.326 87.4594 488.373 87.5146 488.408L92.8555 491.907L87.7415 495.255C87.6425 495.319 87.5697 495.417 87.5359 495.53C87.5022 495.644 87.5098 495.765 87.5574 495.874C87.6049 495.982 87.6893 496.07 87.7956 496.122C87.9019 496.174 88.0233 496.187 88.1379 496.158Z" fill="#7E99D4"/>
<path d="M79.0512 496.577C79.1477 496.552 79.2348 496.499 79.3012 496.425C79.3676 496.351 79.4103 496.259 79.4238 496.16C79.4374 496.061 79.4211 495.961 79.3772 495.871C79.3333 495.782 79.2636 495.708 79.1772 495.658L73.8742 492.618L78.9998 488.811C79.0524 488.771 79.0969 488.722 79.1306 488.666C79.1643 488.61 79.1865 488.547 79.1961 488.482C79.2057 488.417 79.2023 488.351 79.1863 488.288C79.1703 488.224 79.142 488.164 79.1028 488.112C79.0637 488.059 79.0146 488.014 78.9583 487.981C78.902 487.947 78.8396 487.925 78.7747 487.915C78.7097 487.906 78.6436 487.909 78.5799 487.925C78.5163 487.941 78.4565 487.969 78.4038 488.009L72.6652 492.271C72.5985 492.321 72.5452 492.386 72.51 492.461C72.4749 492.536 72.4591 492.619 72.4639 492.702C72.4688 492.785 72.4943 492.865 72.538 492.936C72.5817 493.006 72.6423 493.065 72.7143 493.106L78.6796 496.526C78.7921 496.59 78.9254 496.608 79.0512 496.577Z" fill="#7E99D4"/>
<path d="M87.5657 499.458C87.6141 499.445 87.6603 499.426 87.7027 499.4C87.7589 499.366 87.8078 499.321 87.8466 499.268C87.8854 499.215 87.9134 499.155 87.9289 499.091C87.9445 499.027 87.9473 498.961 87.9372 498.896C87.9272 498.831 87.9044 498.769 87.8702 498.713L79.7148 485.304C79.6454 485.192 79.5343 485.111 79.4057 485.08C79.277 485.049 79.1414 485.07 79.0284 485.139C78.9155 485.208 78.8343 485.319 78.8028 485.447C78.7713 485.576 78.792 485.712 78.8603 485.825L87.0158 499.233C87.0715 499.324 87.1549 499.395 87.2538 499.436C87.3528 499.476 87.4621 499.484 87.5657 499.458Z" fill="#7E99D4"/>
<path d="M835.149 592.04C834.539 592.35 833.919 592.66 833.309 592.96C817.509 600.86 804.869 605.35 787.579 610.27C786.119 593.97 784.709 565.32 783.339 547.56C782.979 542.95 782.619 539.08 782.269 536.35C782.181 534.898 781.884 533.467 781.389 532.1L781.449 536.35L781.599 547.56L782.469 611.67C760.962 617.361 738.868 620.545 716.629 621.16C715.469 621.19 714.329 621.21 713.229 621.23C712.839 621.24 712.459 621.25 712.079 621.25C710.829 621.26 709.589 621.27 708.339 621.27C684.903 621.287 661.552 618.457 638.799 612.84C639.289 596.71 639.779 568.38 640.249 547.56C640.349 543.49 640.439 539.7 640.539 536.35C640.729 529.19 640.929 524.03 641.119 522.3C640.951 522.607 640.82 522.932 640.729 523.27C639.803 527.582 639.171 531.952 638.839 536.35C638.489 539.7 638.139 543.49 637.789 547.56C635.929 569.19 633.989 598.6 631.989 611.07C620.085 607.82 608.403 603.802 597.019 599.04C591.019 596.54 585.126 593.843 579.339 590.95C580.439 583.75 581.589 575.68 582.769 567.31C583.689 560.82 584.639 554.15 585.609 547.56C587.109 537.38 638.069 427.45 650.079 423.6L650.379 423.52L650.589 423.61L671.039 417.33L674.029 416.41L676.039 415.79L683.119 410.4L686.969 407.47L690.579 404.72L697.639 399.35L741.349 402.04L749.859 422.53L768.919 429.5L769.249 429.35L769.539 429.23L769.839 429.31C781.845 433.159 792.176 440.996 799.119 451.52C800.059 452.93 801.199 454.79 802.489 457.04C803.589 458.95 804.789 461.13 806.089 463.54C807.939 466.97 809.959 470.84 812.099 475.03C812.569 475.95 813.049 476.89 813.529 477.84C814.419 479.6 815.322 481.397 816.239 483.23C818.369 487.48 820.569 491.92 822.769 496.43C824.679 500.34 826.609 508.38 828.509 518.61C830.079 527.11 831.639 537.13 833.149 547.56C835.129 561.08 833.019 577.27 834.809 589.71C834.919 590.5 835.039 591.27 835.149 592.04Z" fill="#3F3D56"/>
<path d="M706.954 391.995C735.03 391.995 757.791 369.234 757.791 341.158C757.791 313.082 735.03 290.322 706.954 290.322C678.878 290.322 656.118 313.082 656.118 341.158C656.118 369.234 678.878 391.995 706.954 391.995Z" fill="#FFB6B6"/>
<path opacity="0.2" d="M625.659 518.566L634.156 485.774L641.659 514.07L625.659 518.566Z" fill="black"/>
<path d="M851.769 497.2C848.729 539.08 851.879 557.52 835.099 592.05C819.832 599.523 803.929 605.62 787.579 610.27C785.879 610.75 784.176 611.217 782.469 611.67C760.962 617.361 738.868 620.545 716.629 621.16C715.469 621.19 714.329 621.21 713.229 621.23C712.839 621.24 712.459 621.25 712.079 621.25C710.829 621.26 709.589 621.27 708.339 621.27C684.903 621.287 661.552 618.457 638.799 612.84C636.519 612.28 634.249 611.69 631.989 611.07C620.085 607.82 608.404 603.802 597.019 599.04C591.019 596.54 585.126 593.843 579.339 590.95C578.029 590.29 576.719 589.63 575.429 588.95C568.799 577.29 565.029 563.11 564.949 546.07C569.539 516.71 841.629 471.88 851.769 497.2Z" fill="#2F2E41"/>
<path opacity="0.2" d="M851.761 504.372C851.917 501.779 852.09 499.101 852.293 496.312C842.153 470.992 570.063 515.822 565.473 545.182C565.485 547.874 565.6 550.486 565.794 553.037C576.909 524.059 835.399 481.451 851.761 504.372Z" fill="black"/>
<path d="M558.182 499.175L580.516 488.008L561.905 437.758L557 412.416C556.363 409.123 554.872 406.056 552.678 403.52C550.484 400.984 547.663 399.068 544.496 397.964C541.33 396.86 537.929 396.606 534.633 397.228C531.338 397.85 528.264 399.326 525.718 401.508C521.944 404.742 519.575 409.316 519.11 414.264C518.645 419.211 520.121 424.146 523.225 428.027L541.432 450.786L558.182 499.175Z" fill="#FFB6B6"/>
<path d="M580.516 478.703L550.738 493.592L573.336 564.401C574.959 569.486 577.868 574.065 581.782 577.694C585.695 581.324 590.48 583.881 595.672 585.117C602.074 586.642 608.796 586.087 614.862 583.535C620.928 580.982 626.023 576.564 629.41 570.92L689.334 468.206C693.581 461.129 694.892 452.671 692.987 444.64C691.082 436.609 686.112 429.641 679.139 425.224C675.388 422.849 671.18 421.29 666.787 420.649C662.395 420.008 657.916 420.299 653.643 421.503C649.37 422.707 645.399 424.797 641.988 427.638C638.576 430.478 635.801 434.005 633.843 437.989L597.267 515.926L580.516 478.703Z" fill="#3F3D56"/>
<path d="M259.508 388.487C290.4 388.487 315.443 363.444 315.443 332.552C315.443 301.66 290.4 276.617 259.508 276.617C228.616 276.617 203.573 301.66 203.573 332.552C203.573 363.444 228.616 388.487 259.508 388.487Z" fill="#A0616A"/>
<path d="M204.244 294.006C208.792 287.876 215.329 283.518 220.329 277.751C223.072 274.587 225.35 271.002 228.435 268.169C234.165 262.906 242.179 260.749 249.955 260.481C258.477 260.262 266.931 262.052 274.632 265.707C282.334 269.362 289.067 274.779 294.286 281.519C298.351 279.136 302.415 276.753 306.48 274.37C308.086 278.597 309.691 282.823 311.297 287.05C312.615 285.904 314.296 285.262 316.042 285.238C317.788 285.213 319.486 285.808 320.835 286.916C322.185 288.024 323.099 289.574 323.414 291.291C323.73 293.008 323.428 294.782 322.561 296.298C323.528 293.309 327.96 292.674 330.403 294.649C332.847 296.624 333.501 300.137 333.102 303.253C332.602 306.672 331.091 309.863 328.762 312.416C326.434 314.969 323.396 316.767 320.038 317.579C314.733 318.761 308.56 317.519 304.315 320.912C300.911 323.631 299.884 328.583 296.411 331.213C292.131 334.453 286.081 332.955 280.761 333.671C271.453 334.924 264.083 344.444 265.201 353.769C264.359 350.826 263.474 347.799 261.563 345.409C259.651 343.018 256.432 341.402 253.5 342.281C248.654 343.733 247.862 350.338 249.036 355.259C252.151 368.309 263.955 389.403 263.955 389.403C248.628 395.449 230.367 389.732 218.54 378.259C206.714 366.786 200.555 350.54 197.872 334.283C195.596 320.497 195.919 305.227 204.244 294.006Z" fill="#2F2E41"/>
<path d="M770.662 369.182C781.304 344.784 775.275 322.333 762.302 310.422V310.412C757.202 298.982 750.422 290.162 742.662 288.092C738.912 285.682 735.272 282.852 731.232 281.412C729.35 280.708 727.345 280.392 725.338 280.483C723.33 280.574 721.362 281.07 719.552 281.942L717.492 281.392C715.742 276.922 713.692 276.832 711.412 279.772C702.632 275.682 694.722 273.852 687.682 273.852C664.722 273.852 651.142 293.292 647.542 316.792L666.732 321.902L673.402 311.272L670.322 322.862L680.912 325.672C697.032 346.662 677.742 395.082 653.292 422.022C659.112 420.412 664.909 419.052 670.682 417.942L691.662 387.182L678.662 415.182C685.412 414.192 694.022 415.142 703.432 417.052C706.602 412.912 708.272 407.392 706.632 402.472C709.313 407.661 711.163 413.239 712.112 419.002C731.972 423.852 759.062 426.342 773.662 428.182C785.458 424.332 785.49 380.842 770.662 369.182Z" fill="#2F2E41"/>
<path d="M777.585 286.191C785.38 303.644 769.652 311.151 755.244 310.939C742.225 310.747 731.16 301.601 730.496 288.597C730.176 282.353 732.351 276.238 736.541 271.596C740.731 266.955 746.593 264.168 752.837 263.849C765.84 263.185 772.276 274.302 777.585 286.191Z" fill="#2F2E41"/>
<path d="M415.982 570.309L403.142 548.893L445.834 516.505L463.584 497.764C465.89 495.33 468.794 493.543 472.007 492.582C475.22 491.622 478.629 491.521 481.893 492.291C485.157 493.061 488.162 494.673 490.607 496.968C493.053 499.263 494.853 502.159 495.828 505.368C497.274 510.123 496.815 515.253 494.55 519.676C492.284 524.099 488.389 527.469 483.686 529.074L456.104 538.491L415.982 570.309Z" fill="#A0616A"/>
<path d="M425.262 569.602L405.272 586.262L399.882 590.752L399.252 591.272C397.862 591.962 396.462 592.642 395.052 593.312C390.832 595.322 386.559 597.232 382.232 599.042C370.848 603.804 359.166 607.822 347.262 611.072C345.002 611.692 342.732 612.282 340.452 612.842C339.062 613.182 337.662 613.522 336.262 613.842C335.382 614.052 334.492 614.252 333.602 614.442C332.522 614.682 331.442 614.922 330.362 615.142C329.232 615.382 328.102 615.612 326.972 615.832C323.931 612.939 321.511 609.458 319.857 605.6C318.203 601.743 317.351 597.589 317.352 593.392C317.352 593.122 317.352 592.842 317.362 592.562L320.572 510.232L321.992 473.742C322.211 465.49 325.648 457.651 331.57 451.9C337.491 446.148 345.427 442.941 353.682 442.962C354.642 442.962 355.592 443.012 356.532 443.102C357.212 443.982 357.842 444.892 358.452 445.812C360.112 448.272 362.352 452.162 364.992 457.042C366.082 459.052 367.232 461.232 368.442 463.542C369.172 464.932 375.472 484.592 381.602 504.672L378.902 525.642L374.022 563.442L394.042 550.302L408.142 541.042L409.812 543.832L414.162 551.092L422.562 565.092L425.262 569.602Z" fill="#3F3D56"/>
<path d="M414.302 546.072C414.292 547.772 414.252 549.442 414.162 551.092C413.954 555.644 413.426 560.175 412.582 564.652C411.202 572.171 408.739 579.45 405.272 586.262C404.812 587.172 404.322 588.072 403.822 588.952C402.532 589.632 401.222 590.292 399.912 590.952C399.692 591.062 399.472 591.172 399.252 591.272C393.682 594.042 388.009 596.632 382.232 599.042C370.848 603.804 359.166 607.822 347.262 611.072C345.002 611.692 342.732 612.282 340.452 612.842C336.002 613.942 331.509 614.939 326.972 615.832C308.506 619.46 289.731 621.282 270.912 621.272C269.662 621.272 268.422 621.262 267.172 621.252C266.792 621.252 266.412 621.242 266.022 621.232C264.922 621.212 263.782 621.192 262.622 621.162C240.383 620.547 218.289 617.363 196.782 611.672C195.072 611.222 193.369 610.756 191.672 610.272C175.322 605.622 159.419 599.525 144.152 592.052C127.372 557.522 130.522 539.082 127.482 497.202C133.722 481.612 239.292 492.622 320.572 510.232C342.632 515.012 362.892 520.282 378.902 525.642C395.442 531.172 407.432 536.792 412.132 542.072C413.23 543.165 413.985 544.556 414.302 546.072Z" fill="#2F2E41"/>
<path opacity="0.2" d="M127.488 504.372C127.333 501.779 127.159 499.101 126.957 496.312C137.097 470.992 409.187 515.822 413.777 545.182C413.764 547.874 413.649 550.486 413.455 553.037C402.34 524.059 143.851 481.451 127.488 504.372Z" fill="black"/>
</g>
<defs>
<clipPath id="clip0_1543_188">
<rect width="880.16" height="576.272" fill="white" transform="translate(50 45)"/>
</clipPath>
</defs>
</svg>
